<?xml version="1.0" encoding="utf-8"?>
<!-- Generator: Adobe Illustrator 18.0.0, SVG Export Plug-In . SVG Version: 6.00 Build 0)  -->
<!DOCTYPE svg PUBLIC "-//W3C//DTD SVG 1.1//EN" "http://www.w3.org/Graphics/SVG/1.1/DTD/svg11.dtd">
<svg version="1.1" xmlns="http://www.w3.org/2000/svg" xmlns:xlink="http://www.w3.org/1999/xlink" x="0px" y="0px" width="54px"
	 height="54px" viewBox="0 0 54 54" enable-background="new 0 0 54 54" xml:space="preserve">
<g id="Layer_40" display="none">
	<rect x="-348.333" y="-637" display="inline" fill="#464445" width="691.333" height="784"/>
</g>
<g id="Layer_6">
</g>
<g id="Dark">
	<g>
		<g>
			<path fill-rule="evenodd" clip-rule="evenodd" fill="#1D1D1B" d="M34.882,31.448c-0.64,0.463-1.286,0.898-1.94,1.267
				c-0.038,0.025-0.077,0.049-0.118,0.071c-0.02,0.011-0.041,0.025-0.061,0.037l-0.007-0.007c-1.52,0.697-4.849-0.926-7.851-3.927
				c-3.002-3.001-4.625-6.329-3.929-7.849l-0.008-0.008c0.012-0.021,0.027-0.043,0.039-0.064c0.02-0.039,0.043-0.075,0.067-0.111
				c0.37-0.655,0.805-1.302,1.27-1.943l-5.922-6.685c-1.219,1.412-2.219,2.941-2.971,4.553c0.794,4.273,3.973,9.746,8.89,14.661
				c4.921,4.92,10.401,8.099,14.676,8.889c1.61-0.752,3.138-1.751,4.548-2.968L34.882,31.448z"/>
		</g>
	</g>
</g>
<g id="Layer_7">
</g>
<g id="Layer_5" display="none">
	<path display="inline" opacity="0.3" fill-rule="evenodd" clip-rule="evenodd" fill="#E30613" d="M0,0v54h54V0H0z M47,47H7V7h40V47
		z"/>
</g>
<g id="name" display="none">
	<text transform="matrix(1 0 0 1 6.8136 51.1551)" display="inline" fill="#646363" font-family="'UniversLTStd-Cn'" font-size="8">call</text>
</g>
<g id="Title" display="none">
</g>
</svg>
