<?xml version="1.0" encoding="utf-8"?>
<!-- Generator: Adobe Illustrator 18.1.0, SVG Export Plug-In . SVG Version: 6.00 Build 0)  -->
<svg version="1.1" xmlns="http://www.w3.org/2000/svg" xmlns:xlink="http://www.w3.org/1999/xlink" x="0px" y="0px" width="54px"
	 height="54px" viewBox="0 0 54 54" enable-background="new 0 0 54 54" xml:space="preserve">
<g id="Layer_6">
</g>
<g id="Icon">
	<g>
		<g>
			<g>
				<path fill-rule="evenodd" clip-rule="evenodd" fill="#1D1D1B" d="M17.757,41.349c1.029,0.149,2.085,0.238,3.168,0.238
					c0.995,0,1.964-0.081,2.914-0.207V13.978c-0.95-0.126-1.919-0.207-2.914-0.207c-1.083,0-2.139,0.089-3.168,0.238V41.349z"/>
			</g>
		</g>
		<g>
			<g>
				<path fill-rule="evenodd" clip-rule="evenodd" fill="#1D1D1B" d="M29.907,41.349c1.029,0.149,2.085,0.238,3.168,0.238
					c0.995,0,1.964-0.081,2.913-0.207V13.978c-0.95-0.126-1.919-0.207-2.913-0.207c-1.083,0-2.139,0.089-3.168,0.238V41.349z"/>
			</g>
		</g>
	</g>
</g>
<g id="Layer_7" display="none">
</g>
<g id="padding" display="none">
	<path display="inline" opacity="0.3" fill-rule="evenodd" clip-rule="evenodd" fill="#E30613" d="M0,0v54h54V0H0z M47,47H7V7h40V47
		z"/>
</g>
<g id="name" display="none">
</g>
</svg>
