<?xml version="1.0" encoding="utf-8"?>
<!-- Generator: Adobe Illustrator 18.1.0, SVG Export Plug-In . SVG Version: 6.00 Build 0)  -->
<svg version="1.1" xmlns="http://www.w3.org/2000/svg" xmlns:xlink="http://www.w3.org/1999/xlink" x="0px" y="0px" width="54px"
	 height="54px" viewBox="0 0 54 54" enable-background="new 0 0 54 54" xml:space="preserve">
<g id="Layer_6">
</g>
<g id="Icon">
	<g>
		<path fill-rule="evenodd" clip-rule="evenodd" d="M42.155,27.048L30.067,16.829c-1.639-1.386-3.087-0.387-3.087,1.589v20.677
			c0,1.989,1.478,2.981,3.109,1.571l12.087-10.459C43.189,29.331,43.179,27.914,42.155,27.048z"/>
		<path fill-rule="evenodd" clip-rule="evenodd" d="M28.054,27.048L15.967,16.829c-1.639-1.386-3.087-0.387-3.087,1.589v20.677
			c0,1.989,1.478,2.981,3.109,1.571l12.087-10.459C29.089,29.331,29.079,27.914,28.054,27.048z"/>
	</g>
</g>
<g id="Layer_7" display="none">
</g>
<g id="padding" display="none">
	<path display="inline" opacity="0.3" fill-rule="evenodd" clip-rule="evenodd" fill="#E30613" d="M0,0v54h54V0H0z M47,47H7V7h40V47
		z"/>
</g>
<g id="name" display="none">
</g>
</svg>
