<?xml version="1.0" encoding="utf-8"?>
<!-- Generator: Adobe Illustrator 18.1.0, SVG Export Plug-In . SVG Version: 6.00 Build 0)  -->
<svg version="1.1" xmlns="http://www.w3.org/2000/svg" xmlns:xlink="http://www.w3.org/1999/xlink" x="0px" y="0px" width="54px"
	 height="54px" viewBox="0 0 54 54" enable-background="new 0 0 54 54" xml:space="preserve">
<g id="Layer_6">
</g>
<g id="Icon">
	<g>
		<path fill-rule="evenodd" clip-rule="evenodd" d="M11.58,30.207l12.087,10.459c1.63,1.411,3.109,0.418,3.109-1.571V18.418
			c0-1.976-1.448-2.974-3.087-1.589L11.602,27.048C10.577,27.914,10.567,29.331,11.58,30.207z"/>
		<path fill-rule="evenodd" clip-rule="evenodd" d="M25.681,30.207l12.087,10.459c1.63,1.411,3.109,0.418,3.109-1.571V18.418
			c0-1.976-1.448-2.974-3.087-1.589L25.702,27.048C24.678,27.914,24.668,29.331,25.681,30.207z"/>
	</g>
</g>
<g id="Layer_7" display="none">
</g>
<g id="padding" display="none">
	<path display="inline" opacity="0.3" fill-rule="evenodd" clip-rule="evenodd" fill="#E30613" d="M0,0v54h54V0H0z M47,47H7V7h40V47
		z"/>
</g>
<g id="name" display="none">
</g>
</svg>
