<?xml version="1.0" encoding="utf-8"?>
<!-- Generator: Adobe Illustrator 18.0.0, SVG Export Plug-In . SVG Version: 6.00 Build 0)  -->
<!DOCTYPE svg PUBLIC "-//W3C//DTD SVG 1.1//EN" "http://www.w3.org/Graphics/SVG/1.1/DTD/svg11.dtd">
<svg version="1.1" xmlns="http://www.w3.org/2000/svg" xmlns:xlink="http://www.w3.org/1999/xlink" x="0px" y="0px" width="54px"
	 height="54px" viewBox="0 0 54 54" enable-background="new 0 0 54 54" xml:space="preserve">
<g id="Layer_40" display="none">
	<rect x="-274.333" y="-267" display="inline" fill="#464445" width="691.333" height="784"/>
</g>
<g id="Layer_6">
</g>
<g id="Dark">
	<path fill-rule="evenodd" clip-rule="evenodd" fill="#1D1D1B" d="M40.462,18.146H26.896c-1.693-0.006-2.077-0.834-2.339-1.762
		c-0.263-0.932-0.79-1.759-2.37-1.759c-4.238,0-3.978,0-4.525,0c-1.579,0-2.106,0.827-2.37,1.759
		c-0.23,0.809-0.55,1.582-1.752,1.762h-0.003c-0.671,0-1.213,0.543-1.213,1.213v18.802c0,0.67,0.543,1.213,1.213,1.213h26.925
		c0.669,0,1.213-0.543,1.213-1.213V19.359C41.675,18.689,41.132,18.146,40.462,18.146z"/>
</g>
<g id="Layer_7">
</g>
<g id="Layer_5" display="none">
	<path display="inline" opacity="0.3" fill-rule="evenodd" clip-rule="evenodd" fill="#E30613" d="M0,0v54h54V0H0z M47,47H7V7h40V47
		z"/>
</g>
<g id="name" display="none">
	<text transform="matrix(1 0 0 1 4.6667 50.4886)" display="inline" fill="#646363" font-family="'UniversLTStd-Cn'" font-size="8">folder</text>
</g>
<g id="Title" display="none">
</g>
</svg>
