<?xml version="1.0" encoding="utf-8"?>
<!-- Generator: Adobe Illustrator 18.0.0, SVG Export Plug-In . SVG Version: 6.00 Build 0)  -->
<!DOCTYPE svg PUBLIC "-//W3C//DTD SVG 1.1//EN" "http://www.w3.org/Graphics/SVG/1.1/DTD/svg11.dtd">
<svg version="1.1" xmlns="http://www.w3.org/2000/svg" xmlns:xlink="http://www.w3.org/1999/xlink" x="0px" y="0px" width="54px"
	 height="54px" viewBox="0 0 54 54" enable-background="new 0 0 54 54" xml:space="preserve">
<g id="Layer_40" display="none">
	<rect x="-126.333" y="-563" display="inline" fill="#464445" width="691.333" height="784"/>
</g>
<g id="Layer_6">
</g>
<g id="Dark">
	<g>
		<path fill="#1D1D1B" d="M33.683,19.423c0,5.587-6.682,4.857-6.682,10.116v2.007h-2.082v-2.154c0-6.133,6.537-5.405,6.537-9.858
			c0-2.227-1.644-3.616-4.2-3.616c-2.191,0-3.834,0.841-5.477,2.702l-1.461-1.168c1.973-2.264,4.163-3.36,7.048-3.36
			C31.418,14.092,33.683,16.576,33.683,19.423z M27.804,38.157c0,0.986-0.731,1.752-1.753,1.752c-1.022,0-1.753-0.766-1.753-1.752
			c0-0.951,0.731-1.716,1.753-1.716C27.073,36.44,27.804,37.206,27.804,38.157z"/>
	</g>
</g>
<g id="Layer_7">
</g>
<g id="Layer_5" display="none">
	<path display="inline" opacity="0.3" fill-rule="evenodd" clip-rule="evenodd" fill="#E30613" d="M0,0v54h54V0H0z M47,47H7V7h40V47
		z"/>
</g>
<g id="name" display="none">
	<text transform="matrix(1 0 0 1 4.3136 51.1551)" display="inline" fill="#646363" font-family="'UniversLTStd-Cn'" font-size="8">help</text>
</g>
<g id="Title" display="none">
</g>
</svg>
