<?xml version="1.0" encoding="utf-8"?>
<!-- Generator: Adobe Illustrator 18.0.0, SVG Export Plug-In . SVG Version: 6.00 Build 0)  -->
<!DOCTYPE svg PUBLIC "-//W3C//DTD SVG 1.1//EN" "http://www.w3.org/Graphics/SVG/1.1/DTD/svg11.dtd">
<svg version="1.1" xmlns="http://www.w3.org/2000/svg" xmlns:xlink="http://www.w3.org/1999/xlink" x="0px" y="0px" width="54px"
	 height="54px" viewBox="0 0 54 54" enable-background="new 0 0 54 54" xml:space="preserve">
<g id="Layer_40" display="none">
	<rect x="-200.333" y="-637" display="inline" fill="#464445" width="691.333" height="784"/>
</g>
<g id="Layer_6">
</g>
<g id="Dark">
	<g>
		<g>
			<path fill-rule="evenodd" clip-rule="evenodd" fill="#1D1D1B" d="M28.236,29.042l12.312-12.329
				c-0.243-0.194-0.547-0.315-0.882-0.315H14.353c-0.34,0-0.647,0.124-0.892,0.323l12.305,12.321
				C26.448,29.725,27.554,29.725,28.236,29.042z M28.845,30.413c-1.019,1.021-2.671,1.021-3.69,0l-12.224-12.12v19.083
				c0,0.787,0.637,1.424,1.422,1.424h25.313c0.785,0,1.422-0.637,1.422-1.424V18.274L28.845,30.413z"/>
		</g>
	</g>
</g>
<g id="Layer_7">
</g>
<g id="Layer_5" display="none">
	<path display="inline" opacity="0.3" fill-rule="evenodd" clip-rule="evenodd" fill="#E30613" d="M0,0v54h54V0H0z M47,47H7V7h40V47
		z"/>
</g>
<g id="name" display="none">
	<text transform="matrix(1 0 0 1 5.8136 51.1551)" display="inline" fill="#646363" font-family="'UniversLTStd-Cn'" font-size="8">mail</text>
</g>
<g id="Title" display="none">
</g>
</svg>
