<?xml version="1.0" encoding="utf-8"?>
<!-- Generator: Adobe Illustrator 18.0.0, SVG Export Plug-In . SVG Version: 6.00 Build 0)  -->
<!DOCTYPE svg PUBLIC "-//W3C//DTD SVG 1.1//EN" "http://www.w3.org/Graphics/SVG/1.1/DTD/svg11.dtd">
<svg version="1.1" xmlns="http://www.w3.org/2000/svg" xmlns:xlink="http://www.w3.org/1999/xlink" x="0px" y="0px" width="54px"
	 height="54px" viewBox="0 0 54 54" enable-background="new 0 0 54 54" xml:space="preserve">
<g id="Layer_40" display="none">
	<rect x="-348.333" y="-267" display="inline" fill="#464445" width="691.333" height="784"/>
</g>
<g id="Layer_6">
</g>
<g id="Dark">
	<g>
		<g>
			<path fill-rule="evenodd" clip-rule="evenodd" fill="#1D1D1B" d="M12.684,23.632c-1.849,0-3.348,1.507-3.348,3.366
				c0,1.859,1.499,3.366,3.348,3.366c1.85,0,3.349-1.507,3.349-3.366C16.033,25.139,14.534,23.632,12.684,23.632z M26.989,23.647
				c-1.857,0-3.36,1.504-3.36,3.36c0,1.856,1.504,3.36,3.36,3.36c1.856,0,3.36-1.504,3.36-3.36
				C30.349,25.151,28.845,23.647,26.989,23.647z M41.297,23.632c-1.859,0-3.366,1.507-3.366,3.366c0,1.859,1.507,3.366,3.366,3.366
				c1.859,0,3.366-1.507,3.366-3.366C44.663,25.139,43.156,23.632,41.297,23.632z"/>
		</g>
	</g>
</g>
<g id="Layer_7">
</g>
<g id="Layer_5" display="none">
	<path display="inline" opacity="0.3" fill-rule="evenodd" clip-rule="evenodd" fill="#E30613" d="M0,0v54h54V0H0z M47,47H7V7h40V47
		z"/>
</g>
<g id="name" display="none">
	<text transform="matrix(1 0 0 1 5.4294 50.4886)" display="inline" fill="#646363" font-family="'UniversLTStd-Cn'" font-size="8">menu</text>
</g>
<g id="Title" display="none">
</g>
</svg>
