<?xml version="1.0" encoding="utf-8"?>
<!-- Generator: Adobe Illustrator 18.0.0, SVG Export Plug-In . SVG Version: 6.00 Build 0)  -->
<!DOCTYPE svg PUBLIC "-//W3C//DTD SVG 1.1//EN" "http://www.w3.org/Graphics/SVG/1.1/DTD/svg11.dtd">
<svg version="1.1" xmlns="http://www.w3.org/2000/svg" xmlns:xlink="http://www.w3.org/1999/xlink" x="0px" y="0px" width="54px"
	 height="54px" viewBox="0 0 54 54" enable-background="new 0 0 54 54" xml:space="preserve">
<g id="Layer_40" display="none">
	<rect x="-274.333" y="-637" display="inline" fill="#464445" width="691.333" height="784"/>
</g>
<g id="Layer_6">
</g>
<g id="Dark">
	<g>
		<g>
			<path fill-rule="evenodd" clip-rule="evenodd" fill="#1D1D1B" d="M27.023,13.561c-7.407,0-13.413,6.009-13.413,13.422
				c0,2.759,0.834,5.323,2.261,7.455l-2.307,6.001l5.992-2.306c2.134,1.434,4.702,2.272,7.466,2.272
				c7.408,0,13.413-6.009,13.413-13.422C40.435,19.57,34.43,13.561,27.023,13.561z"/>
		</g>
	</g>
</g>
<g id="Layer_7">
</g>
<g id="Layer_5" display="none">
	<path display="inline" opacity="0.3" fill-rule="evenodd" clip-rule="evenodd" fill="#E30613" d="M0,0v54h54V0H0z M47,47H7V7h40V47
		z"/>
</g>
<g id="name" display="none">
	<text transform="matrix(1 0 0 1 7.1469 51.1551)" display="inline" fill="#646363" font-family="'UniversLTStd-Cn'" font-size="8">message</text>
</g>
<g id="Title" display="none">
</g>
</svg>
