<?xml version="1.0" encoding="utf-8"?>
<!-- Generator: Adobe Illustrator 18.0.0, SVG Export Plug-In . SVG Version: 6.00 Build 0)  -->
<!DOCTYPE svg PUBLIC "-//W3C//DTD SVG 1.1//EN" "http://www.w3.org/Graphics/SVG/1.1/DTD/svg11.dtd">
<svg version="1.1" xmlns="http://www.w3.org/2000/svg" xmlns:xlink="http://www.w3.org/1999/xlink" x="0px" y="0px" width="54px"
	 height="54px" viewBox="0 0 54 54" enable-background="new 0 0 54 54" xml:space="preserve">
<g id="Layer_40" display="none">
	<rect x="-422.333" y="-563" display="inline" fill="#464445" width="691.333" height="784"/>
</g>
<g id="Layer_6">
</g>
<g id="Dark">
	<g>
		<g>
			<path fill-rule="evenodd" clip-rule="evenodd" fill="#1D1D1B" d="M28.498,13.19l0.01,0.314c-0.052-0.078-0.1-0.159-0.155-0.235
				c-0.179,4.535-0.274,9.163-0.178,13.942c0.06,3.049,0.213,6.017,0.401,8.956c-0.942-0.939-2.575-1.662-4.493-1.854
				c-3.118-0.315-5.791,0.873-5.969,2.654c-0.184,1.782,2.198,3.483,5.313,3.793c3.119,0.314,5.797-0.873,5.974-2.652
				c0.006-0.075-0.013-0.143-0.016-0.212c0.037-0.067,0.08-0.123,0.114-0.189c0.089-3.447,0.12-6.946,0.048-10.522
				c-0.074-3.73-0.268-7.36-0.518-10.929c2.946,1.041,5.118,3.755,5.217,7.065c0.08,2.593-1.128,4.913-3.041,6.383l0.02,0.649
				c2.87-1.667,4.779-4.775,4.667-8.328C35.759,17.635,32.61,14.071,28.498,13.19z"/>
		</g>
	</g>
</g>
<g id="Layer_7">
</g>
<g id="Layer_5" display="none">
	<path display="inline" opacity="0.3" fill-rule="evenodd" clip-rule="evenodd" fill="#E30613" d="M0,0v54h54V0H0z M47,47H7V7h40V47
		z"/>
</g>
<g id="name" display="none">
	<text transform="matrix(1 0 0 1 4.8136 51.1551)" display="inline" fill="#646363" font-family="'UniversLTStd-Cn'" font-size="8">music</text>
</g>
<g id="Title" display="none">
</g>
</svg>
