<?xml version="1.0" encoding="utf-8"?>
<!-- Generator: Adobe Illustrator 18.0.0, SVG Export Plug-In . SVG Version: 6.00 Build 0)  -->
<!DOCTYPE svg PUBLIC "-//W3C//DTD SVG 1.1//EN" "http://www.w3.org/Graphics/SVG/1.1/DTD/svg11.dtd">
<svg version="1.1" xmlns="http://www.w3.org/2000/svg" xmlns:xlink="http://www.w3.org/1999/xlink" x="0px" y="0px" width="54px"
	 height="54px" viewBox="0 0 54 54" enable-background="new 0 0 54 54" xml:space="preserve">
<g id="Layer_40" display="none">
	<rect x="-570.333" y="-563" display="inline" fill="#464445" width="691.333" height="784"/>
</g>
<g id="Layer_6">
</g>
<g id="Dark">
	<g>
		<g>
			<g>
				<path fill-rule="evenodd" clip-rule="evenodd" fill="#1D1D1B" d="M16.627,39.703c1.154,0.135,2.341,0.209,3.555,0.209
					c1.114,0,2.206-0.062,3.27-0.176V14.832c-1.064-0.114-2.155-0.176-3.27-0.176c-1.215,0-2.402,0.074-3.555,0.209V39.703z"/>
			</g>
		</g>
		<g>
			<g>
				<path fill-rule="evenodd" clip-rule="evenodd" fill="#1D1D1B" d="M30.262,39.703c1.154,0.135,2.341,0.209,3.555,0.209
					c1.114,0,2.206-0.062,3.27-0.176V14.832c-1.064-0.114-2.155-0.176-3.27-0.176c-1.215,0-2.402,0.074-3.555,0.209V39.703z"/>
			</g>
		</g>
	</g>
</g>
<g id="Layer_7">
</g>
<g id="Layer_5" display="none">
	<path display="inline" opacity="0.3" fill-rule="evenodd" clip-rule="evenodd" fill="#E30613" d="M0,0v54h54V0H0z M47,47H7V7h40V47
		z"/>
</g>
<g id="name" display="none">
	<text transform="matrix(1 0 0 1 4.8136 51.1551)" display="inline" fill="#646363" font-family="'UniversLTStd-Cn'" font-size="8">pause</text>
</g>
<g id="Title" display="none">
</g>
</svg>
