<?xml version="1.0" encoding="utf-8"?>
<!-- Generator: Adobe Illustrator 18.0.0, SVG Export Plug-In . SVG Version: 6.00 Build 0)  -->
<!DOCTYPE svg PUBLIC "-//W3C//DTD SVG 1.1//EN" "http://www.w3.org/Graphics/SVG/1.1/DTD/svg11.dtd">
<svg version="1.1" xmlns="http://www.w3.org/2000/svg" xmlns:xlink="http://www.w3.org/1999/xlink" x="0px" y="0px" width="54px"
	 height="54px" viewBox="0 0 54 54" enable-background="new 0 0 54 54" xml:space="preserve">
<g id="Layer_40" display="none">
	<rect x="-52.333" y="-341" display="inline" fill="#464445" width="691.333" height="784"/>
</g>
<g id="Layer_6">
</g>
<g id="Dark">
	<g>
		<g>
			<path fill-rule="evenodd" clip-rule="evenodd" fill="#1D1D1B" d="M38.431,24.597c-0.857-6.408-6.332-11.355-12.974-11.355
				c-7.237,0-13.104,5.868-13.104,13.104c0,7.238,5.867,13.104,13.104,13.104c3.62,0,6.897-1.467,9.268-3.84l-2.008-2.008
				c-1.858,1.859-4.425,3.009-7.261,3.009c-5.669,0-10.265-4.596-10.265-10.265c0-5.669,4.596-10.265,10.265-10.265
				c5.06,0,9.254,3.664,10.1,8.481c-1.3,0.114-2.489,0.393-3.479,0.794l3.909,3.908c0.485,0.485,1.271,0.485,1.756,0l3.905-3.904
				C40.726,24.986,39.627,24.725,38.431,24.597z"/>
		</g>
	</g>
</g>
<g id="Layer_7">
</g>
<g id="Layer_5" display="none">
	<path display="inline" opacity="0.3" fill-rule="evenodd" clip-rule="evenodd" fill="#E30613" d="M0,0v54h54V0H0z M47,47H7V7h40V47
		z"/>
</g>
<g id="name" display="none">
	<text transform="matrix(1 0 0 1 4.1891 50.4886)" display="inline" fill="#646363" font-family="'UniversLTStd-Cn'" font-size="8">reload</text>
</g>
<g id="Title" display="none">
</g>
</svg>
