<?xml version="1.0" encoding="utf-8"?>
<!-- Generator: Adobe Illustrator 18.0.0, SVG Export Plug-In . SVG Version: 6.00 Build 0)  -->
<!DOCTYPE svg PUBLIC "-//W3C//DTD SVG 1.1//EN" "http://www.w3.org/Graphics/SVG/1.1/DTD/svg11.dtd">
<svg version="1.1" xmlns="http://www.w3.org/2000/svg" xmlns:xlink="http://www.w3.org/1999/xlink" x="0px" y="0px" width="54px"
	 height="54px" viewBox="0 0 54 54" enable-background="new 0 0 54 54" xml:space="preserve">
<g id="Layer_40" display="none">
	<rect x="-52.333" y="-637" display="inline" fill="#464445" width="691.333" height="784"/>
</g>
<g id="Layer_6">
</g>
<g id="Dark">
	<g>
		<g>
			<path fill-rule="evenodd" clip-rule="evenodd" fill="#1D1D1B" d="M37.195,20.713l-2.049,1.221
				c1.551,1.847,2.487,4.226,2.487,6.826c0,5.869-4.758,10.626-10.626,10.626c-5.869,0-10.626-4.758-10.626-10.626
				c0-5.867,4.755-10.624,10.621-10.626v-2.366c-7.173,0.003-12.988,5.818-12.988,12.992c0,7.175,5.817,12.992,12.992,12.992
				C34.183,41.753,40,35.936,40,28.761C40,25.719,38.947,22.927,37.195,20.713z M33.638,17.754c0.257-0.159,0.429-0.448,0.429-0.78
				c0-0.332-0.173-0.621-0.429-0.78v-0.001l-6.613-3.946v9.454l6.613-3.946V17.754z"/>
		</g>
	</g>
</g>
<g id="Layer_7">
</g>
<g id="Layer_5" display="none">
	<path display="inline" opacity="0.3" fill-rule="evenodd" clip-rule="evenodd" fill="#E30613" d="M0,0v54h54V0H0z M47,47H7V7h40V47
		z"/>
</g>
<g id="name" display="none">
	<text transform="matrix(1 0 0 1 4.3136 51.1551)" display="inline" fill="#646363" font-family="'UniversLTStd-Cn'" font-size="8">repeat</text>
</g>
<g id="Title" display="none">
</g>
</svg>
