<?xml version="1.0" encoding="utf-8"?>
<!-- Generator: Adobe Illustrator 18.0.0, SVG Export Plug-In . SVG Version: 6.00 Build 0)  -->
<!DOCTYPE svg PUBLIC "-//W3C//DTD SVG 1.1//EN" "http://www.w3.org/Graphics/SVG/1.1/DTD/svg11.dtd">
<svg version="1.1" xmlns="http://www.w3.org/2000/svg" xmlns:xlink="http://www.w3.org/1999/xlink" x="0px" y="0px" width="54px"
	 height="54px" viewBox="0 0 54 54" enable-background="new 0 0 54 54" xml:space="preserve">
<g id="Layer_40" display="none">
	<rect x="21.667" y="-637" display="inline" fill="#464445" width="691.333" height="784"/>
</g>
<g id="Layer_6">
</g>
<g id="Dark">
	<g>
		<g>
			<path fill-rule="evenodd" clip-rule="evenodd" fill="#1D1D1B" d="M10.148,18.009v17.982c0.265,0.025,0.533,0.042,0.804,0.042
				c0.566,0,1.118-0.06,1.655-0.167V18.134c-0.536-0.106-1.088-0.167-1.655-0.167C10.681,17.967,10.413,17.984,10.148,18.009z
				 M29.137,25.479v0.002c-0.5,0.309-0.836,0.873-0.836,1.519c0,0.646,0.336,1.21,0.836,1.519v0.002l12.876,7.683V17.796
				L29.137,25.479z M14.292,25.481c-0.5,0.309-0.836,0.873-0.836,1.519c0,0.646,0.336,1.21,0.836,1.519v0.002l12.876,7.683V17.796
				l-12.876,7.683V25.481z"/>
		</g>
	</g>
</g>
<g id="Layer_7">
</g>
<g id="Layer_5" display="none">
	<path display="inline" opacity="0.3" fill-rule="evenodd" clip-rule="evenodd" fill="#E30613" d="M0,0v54h54V0H0z M47,47H7V7h40V47
		z"/>
</g>
<g id="name" display="none">
	<text transform="matrix(1 0 0 1 2.1468 51.1551)" display="inline" fill="#646363" font-family="'UniversLTStd-Cn'" font-size="8">seek-backward</text>
</g>
<g id="Title" display="none">
</g>
</svg>
