<?xml version="1.0" encoding="utf-8"?>
<!-- Generator: Adobe Illustrator 18.0.0, SVG Export Plug-In . SVG Version: 6.00 Build 0)  -->
<!DOCTYPE svg PUBLIC "-//W3C//DTD SVG 1.1//EN" "http://www.w3.org/Graphics/SVG/1.1/DTD/svg11.dtd">
<svg version="1.1" xmlns="http://www.w3.org/2000/svg" xmlns:xlink="http://www.w3.org/1999/xlink" x="0px" y="0px" width="54px"
	 height="54px" viewBox="0 0 54 54" enable-background="new 0 0 54 54" xml:space="preserve">
<g id="Layer_40" display="none">
	<rect x="-644.333" y="-563" display="inline" fill="#464445" width="691.333" height="784"/>
</g>
<g id="Layer_6">
</g>
<g id="Dark">
	<g>
		<g>
			<path fill-rule="evenodd" clip-rule="evenodd" fill="#1D1D1B" d="M24.642,25.481v-0.002l-12.876-7.683v18.409l12.876-7.683
				v-0.002c0.5-0.309,0.836-0.873,0.836-1.519C25.477,26.354,25.142,25.79,24.642,25.481z M42.827,17.967
				c-0.566,0-1.118,0.06-1.655,0.167v17.733c0.536,0.106,1.088,0.167,1.655,0.167c0.271,0,0.539-0.017,0.804-0.042V18.009
				C43.366,17.984,43.098,17.967,42.827,17.967z M39.487,25.481v-0.002l-12.876-7.683v18.409l12.876-7.683v-0.002
				c0.5-0.309,0.836-0.873,0.836-1.519C40.322,26.354,39.987,25.79,39.487,25.481z"/>
		</g>
	</g>
</g>
<g id="Layer_7">
</g>
<g id="Layer_5" display="none">
	<path display="inline" opacity="0.3" fill-rule="evenodd" clip-rule="evenodd" fill="#E30613" d="M0,0v54h54V0H0z M47,47H7V7h40V47
		z"/>
</g>
<g id="name" display="none">
	<text transform="matrix(1 0 0 1 4.8136 51.1551)" display="inline" fill="#646363" font-family="'UniversLTStd-Cn'" font-size="8">seek-forward</text>
</g>
<g id="Title" display="none">
</g>
</svg>
