<?xml version="1.0" encoding="utf-8"?>
<!-- Generator: Adobe Illustrator 18.0.0, SVG Export Plug-In . SVG Version: 6.00 Build 0)  -->
<!DOCTYPE svg PUBLIC "-//W3C//DTD SVG 1.1//EN" "http://www.w3.org/Graphics/SVG/1.1/DTD/svg11.dtd">
<svg version="1.1" xmlns="http://www.w3.org/2000/svg" xmlns:xlink="http://www.w3.org/1999/xlink" x="0px" y="0px" width="54px"
	 height="54px" viewBox="0 0 54 54" enable-background="new 0 0 54 54" xml:space="preserve">
<g id="Layer_40" display="none">
	<rect x="-126.333" y="-637" display="inline" fill="#464445" width="691.333" height="784"/>
</g>
<g id="Layer_6">
</g>
<g id="Dark">
	<g>
		<g>
			<path fill-rule="evenodd" clip-rule="evenodd" fill="#1D1D1B" d="M13.643,34.749h1.433v-2.205h-1.754
				C13.412,33.289,13.519,34.024,13.643,34.749z M34.259,24.83l6.171-3.682v-0.001c0.24-0.148,0.4-0.418,0.4-0.728
				c0-0.31-0.161-0.58-0.4-0.728v-0.001l-6.171-3.682v3.206h-0.386v2.205h0.386V24.83z M13.311,21.491h1.765v-2.205h-1.452
				C13.502,20.01,13.399,20.746,13.311,21.491z M29.882,30.905l-1.87-1.87l0.003-0.003l-0.682-0.682l-1.562,1.562l2.552,2.552
				l-0.296-0.295c1.423,1.627,3.512,2.656,5.844,2.658v-2.206c-1.572-0.001-2.988-0.657-3.998-1.706L29.882,30.905z M28.028,21.865
				l0.296-0.296l-3.885,3.885l-3.551-3.551c-1.421-1.606-3.495-2.622-5.809-2.623v2.205c1.572,0.002,2.988,0.657,3.998,1.706
				l-0.01,0.01l1.87,1.87l-0.003,0.003l1.943,1.942l-1.943,1.943l0.003,0.003l-1.87,1.87l0.01,0.01
				c-1.01,1.049-2.427,1.705-3.998,1.706v2.206c2.314-0.001,4.388-1.017,5.809-2.623l7.129-7.129l-0.003-0.003l1.87-1.87l-0.01-0.01
				c1.01-1.049,2.427-1.705,3.998-1.706v-2.206C31.54,19.209,29.451,20.239,28.028,21.865z M40.43,32.89L40.43,32.89l-6.171-3.683
				v3.409h-0.386v2.205h0.386v3.209l6.171-3.682v-0.001c0.24-0.148,0.4-0.418,0.4-0.728C40.83,33.309,40.669,33.039,40.43,32.89z"/>
		</g>
	</g>
</g>
<g id="Layer_7">
</g>
<g id="Layer_5" display="none">
	<path display="inline" opacity="0.3" fill-rule="evenodd" clip-rule="evenodd" fill="#E30613" d="M0,0v54h54V0H0z M47,47H7V7h40V47
		z"/>
</g>
<g id="name" display="none">
	<text transform="matrix(1 0 0 1 6.8136 51.1551)" display="inline" fill="#646363" font-family="'UniversLTStd-Cn'" font-size="8">shuffle-on</text>
</g>
<g id="Title" display="none">
</g>
</svg>
