<?xml version="1.0" encoding="utf-8"?>
<!-- Generator: Adobe Illustrator 18.0.0, SVG Export Plug-In . SVG Version: 6.00 Build 0)  -->
<!DOCTYPE svg PUBLIC "-//W3C//DTD SVG 1.1//EN" "http://www.w3.org/Graphics/SVG/1.1/DTD/svg11.dtd">
<svg version="1.1" xmlns="http://www.w3.org/2000/svg" xmlns:xlink="http://www.w3.org/1999/xlink" x="0px" y="0px" width="54px"
	 height="54px" viewBox="0 0 54 54" enable-background="new 0 0 54 54" xml:space="preserve">
<g id="Layer_40" display="none">
	<rect x="-422.333" y="-267" display="inline" fill="#464445" width="691.333" height="784"/>
</g>
<g id="Layer_6">
</g>
<g id="Dark">
	<path fill-rule="evenodd" clip-rule="evenodd" fill="#231F20" d="M36.45,15.805H17.764c-1.968,0-3.716,2.093-3.716,4.061v14.997
		c0,1.968,1.747,3.332,3.716,3.332H36.45c1.968,0,3.502-1.364,3.502-3.332V19.866C39.952,17.898,38.418,15.805,36.45,15.805z
		 M37.129,21.849v0.955H23.839v-4.222h10.472C35.895,18.583,37.129,20.266,37.129,21.849z M34.312,35.419H23.839V24.905h13.289
		v7.834C37.129,34.322,35.895,35.419,34.312,35.419z"/>
</g>
<g id="Layer_7">
</g>
<g id="Layer_5" display="none">
	<path display="inline" opacity="0.3" fill-rule="evenodd" clip-rule="evenodd" fill="#E30613" d="M0,0v54h54V0H0z M47,47H7V7h40V47
		z"/>
</g>
<g id="name" display="none">
	<text transform="matrix(1 0 0 1 5.4294 50.4886)" display="inline" fill="#646363" font-family="'UniversLTStd-Cn'" font-size="8">sidebar-open</text>
</g>
<g id="Title" display="none">
</g>
</svg>
