<?xml version="1.0" encoding="utf-8"?>
<!-- Generator: Adobe Illustrator 18.0.0, SVG Export Plug-In . SVG Version: 6.00 Build 0)  -->
<!DOCTYPE svg PUBLIC "-//W3C//DTD SVG 1.1//EN" "http://www.w3.org/Graphics/SVG/1.1/DTD/svg11.dtd">
<svg version="1.1" xmlns="http://www.w3.org/2000/svg" xmlns:xlink="http://www.w3.org/1999/xlink" x="0px" y="0px"
	 width="54.899px" height="54px" viewBox="0 0 54.899 54" enable-background="new 0 0 54.899 54" xml:space="preserve">
<g id="Layer_40" display="none">
	<rect x="-496.333" y="-267" display="inline" fill="#464445" width="691.333" height="784"/>
</g>
<g id="Layer_6">
</g>
<g id="Dark">
	<g>
		<path fill-rule="evenodd" clip-rule="evenodd" fill="#231F20" d="M36.899,15.805H18.214c-1.968,0-3.716,2.093-3.716,4.061v14.997
			c0,1.968,1.747,3.332,3.716,3.332h18.686c1.968,0,3.502-1.364,3.502-3.332V19.866C40.401,17.898,38.867,15.805,36.899,15.805z
			 M37.578,32.739c0,1.583-1.234,2.68-2.817,2.68H20.265c-1.583,0-2.989-1.097-2.989-2.68V21.849c0-1.583,1.406-3.267,2.989-3.267
			h14.497c1.583,0,2.817,1.684,2.817,3.267V32.739z"/>
		<path fill-rule="evenodd" clip-rule="evenodd" fill="#231F20" d="M16.589,22.805h22.4v2.1h-22.4V22.805z"/>
	</g>
</g>
<g id="Layer_7">
</g>
<g id="Layer_5" display="none">
	<path display="inline" opacity="0.3" fill-rule="evenodd" clip-rule="evenodd" fill="#E30613" d="M0.45,0v54h54V0H0.45z M47.45,47
		h-40V7h40V47z"/>
</g>
<g id="name" display="none">
	<text transform="matrix(1 0 0 1 5.2736 50.4886)" display="inline" fill="#646363" font-family="'UniversLTStd-Cn'" font-size="8">sidebar-close</text>
</g>
<g id="Title" display="none">
</g>
</svg>
