<?xml version="1.0" encoding="utf-8"?>
<!-- Generator: Adobe Illustrator 18.0.0, SVG Export Plug-In . SVG Version: 6.00 Build 0)  -->
<!DOCTYPE svg PUBLIC "-//W3C//DTD SVG 1.1//EN" "http://www.w3.org/Graphics/SVG/1.1/DTD/svg11.dtd">
<svg version="1.1" xmlns="http://www.w3.org/2000/svg" xmlns:xlink="http://www.w3.org/1999/xlink" x="0px" y="0px" width="54px"
	 height="54px" viewBox="0 0 54 54" enable-background="new 0 0 54 54" xml:space="preserve">
<g id="Layer_40" display="none">
	<rect x="-52.333" y="-563" display="inline" fill="#464445" width="691.333" height="784"/>
</g>
<g id="Layer_6">
</g>
<g id="Dark">
	<g>
		<g>
			<path fill="#1D1D1B" d="M27.013,14.067c-0.155,0-0.305,0.018-0.458,0.023c-0.314,0.65-0.596,1.318-0.862,1.994
				c0.452-0.057,0.91-0.096,1.378-0.096c6.056,0,10.965,4.909,10.965,10.965s-4.909,10.965-10.965,10.965
				c-6.056,0-10.965-4.909-10.965-10.965c0-0.925,0.127-1.818,0.343-2.676l-1.494-1.995c-0.577,1.461-0.896,3.051-0.896,4.718
				c0,5.097,2.961,9.486,7.252,11.589c1.595,0.781,3.365,1.257,5.244,1.322c0.154,0.005,0.303,0.023,0.458,0.023
				c7.154,0,12.954-5.79,12.954-12.934C39.967,19.857,34.167,14.067,27.013,14.067z M24.857,28.091l0.1,0.17
				c0.105,0.157,0.231,0.296,0.365,0.424l0,0c0.031,0.03,0.061,0.058,0.094,0.086l0,0l0,0c0.138,0.12,0.285,0.228,0.444,0.315l0,0
				l0,0c0.017,0.01,0.036,0.016,0.054,0.025c0,0,0,0,0,0s0,0,0,0l0,0l0,0c0.001,0,0.001,0,0.002,0.001
				c0.176,0.091,0.362,0.164,0.556,0.212c0.194,0.049,0.394,0.076,0.598,0.076c0.072,0,0.145-0.01,0.217-0.016h0c0,0,0,0,0,0
				c0.175-0.016,0.351-0.043,0.526-0.097c1.327-0.415,2.063-1.824,1.652-3.147c-0.203-0.645-0.644-1.147-1.194-1.448l-0.117-0.059
				l-10.994-7.312L17.027,17.3l-0.106,0.177l0.057,0.097L24.857,28.091z"/>
		</g>
	</g>
</g>
<g id="Layer_7">
</g>
<g id="Layer_5" display="none">
	<path display="inline" opacity="0.3" fill-rule="evenodd" clip-rule="evenodd" fill="#E30613" d="M0,0v54h54V0H0z M47,47H7V7h40V47
		z"/>
</g>
<g id="name" display="none">
	<text transform="matrix(1 0 0 1 4.3136 51.1551)" display="inline" fill="#646363" font-family="'UniversLTStd-Cn'" font-size="8">timer</text>
</g>
<g id="Title" display="none">
</g>
</svg>
