<?xml version="1.0" encoding="utf-8"?>
<!-- Generator: Adobe Illustrator 18.1.0, SVG Export Plug-In . SVG Version: 6.00 Build 0)  -->
<svg version="1.1" xmlns="http://www.w3.org/2000/svg" xmlns:xlink="http://www.w3.org/1999/xlink" x="0px" y="0px" width="54px"
	 height="54px" viewBox="0 0 54 54" enable-background="new 0 0 54 54" xml:space="preserve">
<g id="Layer_6">
</g>
<g id="Icon">
	<path d="M39.675,22.049c-2.098-5.196-7.094-8.593-12.789-8.593c-1.799,0-3.697,0.4-5.296,0.999
		c-3.497,1.499-6.095,4.097-7.594,7.594s-1.499,7.094,0,10.591c2.098,5.196,7.094,8.593,12.789,8.593c1.798,0,3.597-0.3,5.296-0.999
		c3.497-1.499,6.095-4.097,7.594-7.594C41.174,29.143,41.174,25.546,39.675,22.049z M33.665,17.981l-3.323,1.375
		c-0.957-1.377-2.003-2.612-3.126-3.684C29.556,15.764,31.797,16.598,33.665,17.981z M31.281,25.446
		c0.542,1.307,0.949,2.644,1.253,3.977l-8.287,3.429c-0.692-1.174-1.324-2.416-1.86-3.707c-0.506-1.222-0.912-2.47-1.236-3.716
		l8.415-3.482C30.22,23.054,30.804,24.223,31.281,25.446z M20.456,17.42c0.579-0.37,1.189-0.7,1.834-0.967
		c0.688-0.229,1.354-0.41,2.028-0.545c1.478,1.098,2.871,2.551,4.088,4.248l-7.709,3.189C20.333,21.27,20.244,19.251,20.456,17.42z
		 M15.994,22.849c0.51-1.346,1.288-2.554,2.255-3.591c-0.006,1.579,0.155,3.226,0.481,4.902l-3.501,1.448
		C15.369,24.664,15.615,23.735,15.994,22.849z M15.994,31.741c-0.512-1.237-0.792-2.528-0.866-3.82l4.083-1.69
		c0.34,1.24,0.76,2.483,1.279,3.711c0.548,1.298,1.178,2.528,1.864,3.692l-4.048,1.675C17.341,34.303,16.552,33.104,15.994,31.741z
		 M20.117,36.831l3.387-1.401c0.868,1.25,1.808,2.39,2.809,3.389C24.029,38.733,21.897,38.036,20.117,36.831z M33.025,37.094
		c-0.555,0.359-1.135,0.681-1.744,0.941c-0.775,0.258-1.523,0.46-2.286,0.597c-1.274-1.049-2.497-2.408-3.601-3.986l7.536-3.118
		C33.203,33.478,33.223,35.367,33.025,37.094z M37.576,31.741c-0.549,1.28-1.336,2.447-2.287,3.461
		c0.025-1.452-0.094-2.963-0.347-4.505l3.349-1.385C38.143,30.142,37.912,30.958,37.576,31.741z M34.519,28.602
		c-0.318-1.315-0.724-2.639-1.239-3.956c-0.537-1.235-1.136-2.4-1.783-3.497l3.897-1.612c0.89,0.967,1.638,2.08,2.183,3.313
		c0.552,1.334,0.838,2.731,0.881,4.123L34.519,28.602z"/>
</g>
<g id="Layer_7" display="none">
</g>
<g id="padding" display="none">
	<path display="inline" opacity="0.3" fill-rule="evenodd" clip-rule="evenodd" fill="#E30613" d="M0,0v54h54V0H0z M47,47H7V7h40V47
		z"/>
</g>
<g id="name" display="none">
</g>
</svg>
