<?xml version="1.0" encoding="utf-8"?>
<!-- Generator: Adobe Illustrator 18.1.0, SVG Export Plug-In . SVG Version: 6.00 Build 0)  -->
<svg version="1.1" xmlns="http://www.w3.org/2000/svg" xmlns:xlink="http://www.w3.org/1999/xlink" x="0px" y="0px" width="54px"
	 height="54px" viewBox="0 0 54 54" enable-background="new 0 0 54 54" xml:space="preserve">
<g id="Layer_6">
</g>
<g id="Icon">
	<g>
		<g>
			<path d="M25.716,41.487c-5.695,0-10.691-3.397-12.789-8.593c-1.499-3.497-1.499-7.094,0-10.591s4.097-6.095,7.594-7.594
				c1.599-0.599,3.497-0.999,5.296-0.999c5.695,0,10.691,3.397,12.789,8.593c1.499,3.497,1.499,7.094,0,10.591
				s-4.097,6.095-7.594,7.594C29.313,41.187,27.514,41.487,25.716,41.487z M25.716,15.909c-1.599,0-2.997,0.3-4.496,0.799
				c-2.898,1.199-5.196,3.497-6.295,6.395c-1.199,2.798-1.199,5.995,0,8.892c1.798,4.396,5.995,7.094,10.791,7.094
				c1.599,0,2.997-0.3,4.496-0.799c2.798-1.199,5.096-3.497,6.295-6.295s1.199-5.995,0-8.892
				C34.608,18.806,30.312,15.909,25.716,15.909z"/>
		</g>
		<g>
			<path d="M27.314,40.888c-3.197-2.398-5.995-6.195-7.893-10.691c-1.898-4.496-2.598-9.192-2.098-13.189l2.098,0.3
				c-0.5,3.597,0.2,7.993,1.898,12.09c1.699,4.097,4.296,7.793,7.094,9.892L27.314,40.888z"/>
		</g>
		<g>
			<path d="M34.009,38.19l-2.098-0.4c0.5-3.597,0-7.993-1.699-12.09c-1.599-4.097-4.296-7.693-7.294-9.792l1.199-1.699
				c3.297,2.398,6.095,6.095,8.093,10.691C34.009,29.497,34.608,34.193,34.009,38.19z"/>
		</g>
		<g>
			<rect x="22.849" y="11.878" transform="matrix(-0.3823 -0.924 0.924 -0.3823 11.811 53.8316)" width="2.098" height="22.18"/>
		</g>
		<g>
			<rect x="27.218" y="20.494" transform="matrix(-0.3823 -0.924 0.924 -0.3823 9.3824 70.5385)" width="2.098" height="23.279"/>
		</g>
	</g>
</g>
<g id="Layer_7" display="none">
</g>
<g id="padding" display="none">
	<path display="inline" opacity="0.3" fill-rule="evenodd" clip-rule="evenodd" fill="#E30613" d="M0,0v54h54V0H0z M47,47H7V7h40V47
		z"/>
</g>
<g id="name" display="none">
	<text transform="matrix(1 0 0 1 5.4295 51.1551)" display="inline" fill="#646363" font-family="'UniversLTStd-Cn'" font-size="8">web</text>
</g>
</svg>
