<?xml version="1.0" encoding="utf-8"?>
<!-- Generator: Adobe Illustrator 18.0.0, SVG Export Plug-In . SVG Version: 6.00 Build 0)  -->
<!DOCTYPE svg PUBLIC "-//W3C//DTD SVG 1.1//EN" "http://www.w3.org/Graphics/SVG/1.1/DTD/svg11.dtd">
<svg version="1.1" xmlns="http://www.w3.org/2000/svg" xmlns:xlink="http://www.w3.org/1999/xlink" x="0px" y="0px" width="54px"
	 height="54px" viewBox="0 0 54 54" enable-background="new 0 0 54 54" xml:space="preserve">
<g id="Layer_40" display="none">
	<rect x="-200.333" y="-267" display="inline" fill="#464445" width="691.333" height="784"/>
</g>
<g id="Layer_6">
</g>
<g id="Dark">
	<path fill-rule="evenodd" clip-rule="evenodd" fill="#1D1D1B" d="M41.308,25.392c-3.339-4.234-8.503-6.961-14.313-6.961
		c-5.806,0-10.966,2.722-14.305,6.949l-2.313-2.312c3.938-4.808,9.919-7.878,16.618-7.878c6.705,0,12.688,3.075,16.627,7.889
		L41.308,25.392z M39.024,27.676l-2.309,2.31c-2.128-3.087-5.686-5.114-9.719-5.114c-4.029,0-7.581,2.022-9.71,5.104l-2.311-2.311
		c2.742-3.657,7.099-6.033,12.021-6.033C31.923,21.631,36.282,24.013,39.024,27.676z M26.996,28.074
		c3.151,0,5.901,1.704,7.394,4.235l-2.418,2.418c-0.774-1.999-2.703-3.423-4.976-3.423c-2.268,0-4.194,1.418-4.972,3.408
		l-2.416-2.416C21.103,29.772,23.848,28.074,26.996,28.074z M26.996,34.516c1.186,0,2.148,0.962,2.148,2.146
		c0,1.186-0.962,2.148-2.148,2.148c-1.186,0-2.147-0.962-2.147-2.148C24.849,35.478,25.809,34.516,26.996,34.516z"/>
</g>
<g id="Layer_7">
</g>
<g id="Layer_5" display="none">
	<path display="inline" opacity="0.3" fill-rule="evenodd" clip-rule="evenodd" fill="#E30613" d="M0,0v54h54V0H0z M47,47H7V7h40V47
		z"/>
</g>
<g id="name" display="none">
	<text transform="matrix(1 0 0 1 4.1891 50.4886)" display="inline" fill="#646363" font-family="'UniversLTStd-Cn'" font-size="8">wifi</text>
</g>
<g id="Title" display="none">
</g>
</svg>
